<svg xmlns="http://www.w3.org/2000/svg" width="1024" height="1024" viewBox="0 0 1024 1024">
<g>
<path d="M 553.87 792.08 C532.27,795.35 485.71,795.40 476.00,792.17 C474.02,791.51 475.04,791.19 480.88,790.65 C484.93,790.27 488.76,790.34 489.38,790.81 C489.99,791.27 491.62,791.53 493.00,791.39 C496.96,790.99 508.55,786.57 508.00,785.67 C507.73,785.23 508.29,784.42 509.25,783.88 C510.21,783.34 511.00,782.33 511.00,781.62 C511.00,780.24 515.11,776.00 516.46,776.00 C516.92,776.00 519.26,774.76 521.68,773.25 C525.06,771.13 525.95,770.03 525.57,768.47 C525.30,767.35 526.11,764.28 527.38,761.65 C530.03,756.14 535.69,752.08 540.77,752.03 C544.95,751.99 559.08,747.92 560.83,746.25 C561.56,745.55 563.36,745.06 564.83,745.16 C568.03,745.38 580.49,741.34 584.00,738.95 C585.38,738.02 589.65,736.10 593.50,734.69 C601.62,731.73 610.20,728.25 618.00,724.78 C626.51,720.99 627.40,720.67 628.87,720.91 C629.62,721.04 631.42,720.04 632.87,718.69 C636.05,715.73 639.27,714.00 641.60,714.00 C644.63,714.00 651.08,710.66 650.58,709.35 C650.27,708.54 650.67,708.32 651.71,708.72 C652.88,709.17 653.10,708.97 652.51,708.02 C651.96,707.12 652.08,706.93 652.89,707.43 C653.60,707.87 654.90,707.13 656.10,705.59 C658.40,702.68 669.73,695.71 670.95,696.47 C672.07,697.16 678.55,692.54 678.28,691.24 C677.97,689.74 685.87,682.80 687.06,683.54 C687.60,683.87 689.49,683.27 691.27,682.21 C693.05,681.16 696.60,679.72 699.18,679.03 C702.26,678.21 703.68,677.34 703.36,676.49 C703.09,675.78 703.41,674.86 704.09,674.45 C704.87,673.96 705.05,674.11 704.60,674.85 C704.20,675.48 704.33,676.00 704.88,676.00 C706.17,676.00 712.90,672.17 715.50,669.96 C716.60,669.03 718.83,667.95 720.45,667.56 C722.07,667.18 724.89,665.54 726.73,663.93 C729.46,661.54 734.02,660.10 735.27,661.25 C735.42,661.39 736.63,660.49 737.96,659.25 C740.23,657.14 741.88,656.56 744.67,656.91 C746.36,657.11 751.00,652.56 751.00,650.69 C751.00,647.72 753.02,647.86 753.62,650.87 L 754.22 653.87 L 756.44 651.69 C757.66,650.48 760.34,646.91 762.38,643.75 C764.43,640.59 766.79,638.00 767.63,638.00 C769.55,638.00 762.84,650.64 752.52,666.50 C725.93,707.34 684.69,743.93 641.50,764.99 C611.79,779.47 587.46,786.99 553.87,792.08 ZM 465.50 715.99 C447.32,717.13 419.55,717.08 408.50,715.88 C405.20,715.53 398.45,714.74 393.50,714.13 C387.02,713.33 382.40,713.32 377.00,714.10 C370.50,715.03 368.77,714.93 364.00,713.34 C360.44,712.15 356.91,711.68 354.00,712.00 C348.88,712.57 343.00,711.11 343.00,709.27 C343.00,707.90 339.24,706.68 336.36,707.12 C334.32,707.42 326.80,705.15 326.00,703.98 C325.33,703.00 317.77,699.00 316.59,699.00 C316.08,699.00 314.91,698.32 314.00,697.50 C313.08,696.67 310.57,695.81 308.42,695.59 C302.57,695.00 285.81,686.44 282.36,682.28 C281.73,681.52 279.93,680.68 278.36,680.39 C274.68,679.74 270.53,677.04 271.64,676.03 C272.11,675.60 283.75,672.06 297.50,668.15 C311.25,664.25 325.51,660.18 329.18,659.12 C336.74,656.93 337.83,658.42 330.94,661.53 C326.74,663.42 325.65,666.00 329.06,666.00 C330.19,666.00 330.84,666.45 330.50,667.00 C330.16,667.55 330.70,668.02 331.69,668.04 C333.06,668.07 332.84,668.44 330.80,669.54 L 328.11 671.01 L 331.05 676.95 C332.67,680.21 334.00,683.31 334.00,683.84 C334.00,685.24 336.27,685.86 339.31,685.28 C341.33,684.89 342.00,685.17 342.00,686.38 C342.00,687.27 341.37,688.00 340.61,688.00 C339.84,688.00 338.95,688.67 338.64,689.50 C338.16,690.74 339.19,691.00 344.47,691.00 C351.46,691.00 352.61,691.79 352.14,696.25 C351.88,698.69 352.18,699.00 354.80,699.00 C356.43,699.00 358.32,699.67 359.00,700.50 C359.68,701.33 361.78,702.00 363.65,702.00 C365.79,702.00 367.28,702.57 367.65,703.53 C368.04,704.55 368.61,704.74 369.39,704.09 C370.03,703.56 374.36,702.15 379.02,700.96 C383.69,699.76 389.08,697.98 391.00,696.99 C392.92,696.00 398.02,693.58 402.33,691.61 C406.64,689.64 411.36,687.18 412.83,686.15 C415.25,684.46 434.31,674.28 465.00,658.29 C471.33,654.99 479.20,651.51 482.50,650.56 C490.37,648.27 496.00,645.90 496.00,644.87 C496.00,644.42 497.06,643.35 498.37,642.50 C501.50,640.44 504.83,641.72 509.98,646.98 C513.14,650.20 514.64,651.00 517.53,651.00 C521.19,651.00 524.83,652.41 526.33,654.40 C526.91,655.18 527.30,655.14 527.66,654.25 C527.94,653.56 528.85,653.00 529.68,653.00 C530.51,653.00 532.39,652.17 533.85,651.15 C535.31,650.14 539.65,647.61 543.50,645.53 C547.35,643.46 551.37,641.03 552.43,640.13 C554.29,638.56 554.31,638.58 552.89,640.68 C552.08,641.87 544.91,647.97 536.96,654.22 C506.74,677.97 492.81,688.80 480.69,698.00 C471.19,705.20 468.56,707.66 469.83,708.18 C470.75,708.55 479.60,708.91 489.50,708.97 C506.36,709.07 507.32,709.18 504.64,710.63 C500.72,712.75 486.94,714.64 465.50,715.99 ZM 723.98 460.69 C723.96,465.96 722.30,466.51 721.55,461.49 C720.78,456.35 713.34,433.70 710.49,427.84 L 708.72 424.18 L 712.59 419.34 C719.90,410.19 738.71,391.00 740.37,391.00 C742.09,391.00 737.13,405.69 733.61,411.02 C727.76,419.86 726.71,423.02 727.51,429.45 C727.93,432.78 728.32,438.20 728.38,441.50 C728.50,447.39 728.45,447.49 725.91,447.20 C722.16,446.76 720.89,448.89 721.63,454.33 C721.98,456.87 722.66,458.71 723.13,458.42 C723.61,458.12 723.99,459.15 723.98,460.69 ZM 763.00 397.43 C763.00,399.24 760.04,399.38 755.50,397.79 C751.50,396.39 749.18,394.26 748.81,391.65 C748.61,390.30 747.66,389.38 746.25,389.18 C745.01,389.00 744.00,388.53 744.00,388.13 C744.00,386.52 749.97,378.28 753.77,374.65 L 757.79 370.80 L 763.56 381.57 C766.74,387.49 769.33,392.93 769.33,393.67 C769.33,394.40 769.78,395.00 770.33,395.00 C770.88,395.00 771.03,395.31 770.65,395.68 C770.28,396.06 768.51,394.95 766.73,393.22 C764.56,391.12 763.04,390.36 762.14,390.91 C761.11,391.55 761.05,392.23 761.90,393.81 C762.50,394.94 763.00,396.57 763.00,397.43 ZM 348.85 655.90 C345.14,657.20 341.00,657.34 341.00,656.18 C341.00,655.40 357.62,650.00 360.01,650.00 C360.62,650.00 360.84,650.46 360.49,651.02 C360.14,651.58 359.44,651.77 358.93,651.46 C358.42,651.14 358.00,651.36 358.00,651.94 C358.00,652.52 356.40,653.00 354.44,653.00 C352.48,653.00 351.13,653.41 351.44,653.90 C351.75,654.40 350.58,655.30 348.85,655.90 Z" fill="rgb(2,87,109)"/>
<path d="M 723.98 460.69 C723.99,459.15 723.61,458.12 723.13,458.42 C722.66,458.71 721.98,456.87 721.63,454.33 C720.89,448.89 722.16,446.76 725.91,447.20 C728.45,447.49 728.50,447.39 728.38,441.50 C728.32,438.20 727.93,432.78 727.51,429.45 C726.71,423.02 727.76,419.86 733.61,411.02 C737.13,405.69 742.09,391.00 740.37,391.00 C738.71,391.00 719.90,410.19 712.59,419.34 L 708.72 424.18 L 710.49 427.84 C710.87,428.61 711.32,429.68 711.83,430.96 C711.13,429.32 710.41,427.78 709.68,426.34 L 707.06 421.19 L 709.33 419.70 C710.98,418.62 711.66,417.11 711.84,414.11 C712.07,410.24 711.49,409.45 708.75,409.88 C707.46,410.08 707.93,408.22 709.57,406.57 C711.54,404.60 713.71,404.57 715.62,406.48 C716.92,407.78 717.67,407.57 721.99,404.73 C724.69,402.95 726.92,401.01 726.95,400.40 C727.03,398.72 730.19,396.34 733.35,395.59 C735.53,395.07 736.09,394.46 735.71,393.02 C735.12,390.74 739.25,385.44 743.22,383.39 C744.75,382.60 746.00,381.35 746.00,380.63 C746.00,379.90 746.95,378.45 748.10,377.41 C750.98,374.80 753.27,370.14 752.56,368.30 C751.88,366.51 759.32,359.25 762.75,358.36 C764.09,358.02 765.00,357.01 765.00,355.89 C765.00,353.15 768.78,349.69 770.83,350.56 C771.75,350.95 773.30,351.23 774.28,351.19 C775.46,351.14 772.99,354.46 767.02,360.93 L 757.97 370.74 L 762.25 379.13 L 757.79 370.80 L 753.77 374.65 C749.97,378.28 744.00,386.52 744.00,388.13 C744.00,388.53 745.01,389.00 746.25,389.18 C747.66,389.38 748.61,390.30 748.81,391.65 C749.18,394.26 751.50,396.39 755.50,397.79 C760.04,399.38 763.00,399.24 763.00,397.43 C763.00,396.57 762.50,394.94 761.90,393.81 C761.05,392.23 761.11,391.55 762.14,390.91 C763.04,390.36 764.56,391.12 766.73,393.22 C768.30,394.74 769.86,395.79 770.46,395.75 C782.91,422.89 791.48,452.71 795.18,482.00 C797.10,497.23 796.78,539.28 794.64,554.00 C791.46,575.85 783.75,604.74 777.41,618.61 C776.08,621.50 775.00,624.35 775.00,624.94 C775.00,625.52 774.55,626.00 774.00,626.00 C773.45,626.00 773.00,626.98 773.00,628.17 C773.00,629.60 770.36,635.29 766.66,642.31 C767.91,639.57 768.31,638.00 767.63,638.00 C766.79,638.00 764.43,640.59 762.38,643.75 C760.34,646.91 757.66,650.48 756.44,651.69 L 754.22 653.87 L 753.62 650.87 C753.02,647.86 751.00,647.72 751.00,650.69 C751.00,652.56 746.36,657.11 744.67,656.91 C741.88,656.56 740.23,657.14 737.96,659.25 C736.63,660.49 735.42,661.39 735.27,661.25 C734.02,660.10 729.46,661.54 726.73,663.93 C724.89,665.54 722.07,667.18 720.45,667.56 C718.83,667.95 716.60,669.03 715.50,669.96 C712.90,672.17 706.17,676.00 704.88,676.00 C704.33,676.00 704.20,675.48 704.60,674.85 C705.05,674.11 704.87,673.96 704.09,674.45 C703.41,674.86 703.09,675.78 703.36,676.49 C703.68,677.34 702.26,678.21 699.18,679.03 C696.60,679.72 693.05,681.16 691.27,682.21 C689.49,683.27 687.60,683.87 687.06,683.54 C685.87,682.80 677.97,689.74 678.28,691.24 C678.55,692.54 672.07,697.16 670.95,696.47 C669.73,695.71 658.40,702.68 656.10,705.59 C654.90,707.13 653.60,707.87 652.89,707.43 C652.08,706.93 651.96,707.12 652.51,708.02 C653.10,708.97 652.88,709.17 651.71,708.72 C650.67,708.32 650.27,708.54 650.58,709.35 C651.08,710.66 644.63,714.00 641.60,714.00 C639.27,714.00 636.05,715.73 632.87,718.69 C631.42,720.04 629.62,721.04 628.87,720.91 C627.40,720.67 626.51,720.99 618.00,724.78 C610.20,728.25 601.62,731.73 593.50,734.69 C589.65,736.10 585.38,738.02 584.00,738.95 C580.49,741.34 568.03,745.38 564.83,745.16 C563.36,745.06 561.56,745.55 560.83,746.25 C559.08,747.92 544.95,751.99 540.77,752.03 C535.69,752.08 530.03,756.14 527.38,761.65 C526.11,764.28 525.30,767.35 525.57,768.47 C525.95,770.03 525.06,771.13 521.68,773.25 C519.26,774.76 516.92,776.00 516.46,776.00 C515.11,776.00 511.00,780.24 511.00,781.62 C511.00,782.33 510.21,783.34 509.25,783.88 C508.29,784.42 507.73,785.23 508.00,785.67 C508.55,786.57 496.96,790.99 493.00,791.39 C491.62,791.53 489.99,791.27 489.38,790.81 C488.76,790.34 484.93,790.27 480.88,790.65 C475.04,791.19 474.02,791.51 476.00,792.17 C476.45,792.32 476.98,792.46 477.58,792.59 C449.17,788.69 417.42,779.97 392.37,769.01 C381.45,764.22 365.87,756.04 372.50,758.56 C377.81,760.58 381.54,760.22 384.80,757.36 C386.56,755.82 388.00,753.98 388.00,753.28 C388.00,752.57 388.42,752.00 388.94,752.00 C389.46,752.00 389.74,751.21 389.55,750.25 C389.37,749.29 389.85,747.92 390.61,747.21 C391.37,746.50 392.01,746.28 392.02,746.71 C392.02,747.14 392.43,746.87 392.91,746.11 C393.65,744.94 395.12,745.05 402.15,746.81 C406.74,747.96 416.58,749.81 424.00,750.92 C479.98,759.25 531.22,754.61 590.00,735.87 C599.95,732.70 623.71,722.63 628.00,719.77 C629.38,718.85 632.25,717.37 634.38,716.48 C636.52,715.59 639.45,714.06 640.88,713.09 C643.71,711.17 653.27,705.46 659.13,702.19 C663.01,700.03 666.99,697.15 681.93,685.72 C718.36,657.84 745.59,623.31 765.91,579.20 C773.96,561.71 777.35,552.14 780.12,539.00 C786.39,509.34 788.50,489.40 786.58,478.11 C785.92,474.23 785.13,470.79 784.81,470.48 C783.76,469.42 778.96,471.21 777.99,473.01 C777.47,473.99 776.37,478.92 775.56,483.97 C774.07,493.17 771.07,500.00 768.53,500.00 C767.80,500.00 766.95,500.67 766.64,501.50 C765.52,504.41 758.56,503.03 754.00,499.00 C752.62,497.79 750.70,496.23 749.73,495.54 C748.33,494.55 747.84,492.24 747.35,484.39 C747.01,478.95 746.31,473.97 745.79,473.31 C745.28,472.66 743.49,471.83 741.81,471.46 C738.17,470.66 737.04,471.96 737.02,476.94 C736.98,485.78 724.11,536.44 722.35,534.68 C722.14,534.47 722.47,531.19 723.09,527.40 C723.71,523.60 724.20,519.38 724.19,518.00 C724.18,516.62 724.64,512.03 725.20,507.78 C727.13,493.35 723.34,466.92 717.14,445.99 C719.31,452.66 721.19,459.05 721.55,461.49 C722.30,466.51 723.96,465.96 723.98,460.69 ZM 348.85 655.90 C350.58,655.30 351.75,654.40 351.44,653.90 C351.13,653.41 352.48,653.00 354.44,653.00 C356.40,653.00 358.00,652.52 358.00,651.94 C358.00,651.36 358.42,651.14 358.93,651.46 C359.44,651.77 360.14,651.58 360.49,651.02 C360.84,650.46 360.62,650.00 360.01,650.00 C359.35,650.00 357.59,650.41 355.41,651.03 C371.54,646.12 388.23,641.04 394.00,639.29 C411.18,634.07 454.46,620.43 471.43,614.88 C488.23,609.39 491.02,608.87 483.00,612.71 C475.47,616.31 474.06,618.48 478.53,619.60 C479.92,619.94 481.49,621.05 482.03,622.05 C482.66,623.23 484.68,624.12 487.75,624.56 C490.36,624.94 494.01,625.86 495.85,626.62 C497.86,627.43 499.81,627.65 500.71,627.14 C501.54,626.68 504.31,626.69 506.86,627.18 C507.68,627.33 508.39,627.47 509.11,627.53 C513.73,627.96 518.61,625.52 555.44,607.07 L 555.69 606.94 C575.38,597.08 591.88,589.00 592.34,589.00 C592.81,589.00 596.76,587.20 601.13,584.99 C608.80,581.13 609.18,581.04 612.07,582.54 C614.76,583.93 615.21,583.93 616.60,582.54 C618.43,580.71 618.57,580.70 621.07,582.04 C622.13,582.60 623.00,582.67 623.00,582.17 C623.00,581.67 623.93,580.09 625.07,578.64 C626.81,576.42 627.47,576.18 629.19,577.10 C630.36,577.73 630.98,577.77 630.63,577.21 C630.30,576.67 630.96,575.98 632.11,575.68 C633.26,575.38 633.97,574.76 633.69,574.31 C632.88,572.99 635.49,570.07 637.78,569.72 C638.93,569.54 641.34,568.18 643.13,566.70 C644.92,565.21 646.86,564.04 647.44,564.08 C648.02,564.12 647.93,564.39 647.24,564.66 C646.55,564.94 646.24,565.58 646.55,566.09 C646.86,566.59 646.64,567.00 646.06,567.00 C645.48,567.00 643.15,568.80 640.88,571.00 C638.61,573.20 636.30,575.00 635.74,575.00 C635.18,575.00 634.22,575.64 633.61,576.42 C632.48,577.86 627.06,582.28 587.00,614.46 C564.17,632.79 533.73,656.85 509.69,675.60 C517.08,669.82 525.94,662.88 536.96,654.22 C544.91,647.97 552.08,641.87 552.89,640.68 C554.31,638.58 554.29,638.56 552.43,640.13 C551.37,641.03 547.35,643.46 543.50,645.53 C539.65,647.61 535.31,650.14 533.85,651.15 C532.39,652.17 530.51,653.00 529.68,653.00 C528.85,653.00 527.94,653.56 527.66,654.25 C527.30,655.14 526.91,655.18 526.33,654.40 C524.83,652.41 521.19,651.00 517.53,651.00 C514.64,651.00 513.14,650.20 509.98,646.98 C504.83,641.72 501.50,640.44 498.37,642.50 C497.06,643.35 496.00,644.42 496.00,644.87 C496.00,645.90 490.37,648.27 482.50,650.56 C479.20,651.51 471.33,654.99 465.00,658.29 C434.31,674.28 415.25,684.46 412.83,686.15 C411.36,687.18 406.64,689.64 402.33,691.61 C398.02,693.58 392.92,696.00 391.00,696.99 C389.08,697.98 383.69,699.76 379.02,700.96 C374.36,702.15 370.03,703.56 369.39,704.09 C368.61,704.74 368.04,704.55 367.65,703.53 C367.28,702.57 365.79,702.00 363.65,702.00 C361.78,702.00 359.68,701.33 359.00,700.50 C358.32,699.67 356.43,699.00 354.80,699.00 C352.18,699.00 351.88,698.69 352.14,696.25 C352.61,691.79 351.46,691.00 344.47,691.00 C339.19,691.00 338.16,690.74 338.64,689.50 C338.95,688.67 339.84,688.00 340.61,688.00 C341.37,688.00 342.00,687.27 342.00,686.38 C342.00,685.17 341.33,684.89 339.31,685.28 C336.27,685.86 334.00,685.24 334.00,683.84 C334.00,683.31 332.67,680.21 331.05,676.95 L 328.11 671.01 L 330.80 669.54 C332.84,668.44 333.06,668.07 331.69,668.04 C330.70,668.02 330.16,667.55 330.50,667.00 C330.84,666.45 330.19,666.00 329.06,666.00 C325.65,666.00 326.74,663.42 330.94,661.53 C337.83,658.42 336.74,656.93 329.18,659.12 C326.52,659.89 318.29,662.24 308.72,664.96 C321.26,661.30 337.27,656.54 349.86,652.72 C345.31,654.19 341.00,655.78 341.00,656.18 C341.00,657.34 345.14,657.20 348.85,655.90 ZM 465.50 715.99 C486.94,714.64 500.72,712.75 504.64,710.63 C507.32,709.18 506.36,709.07 489.50,708.97 C487.36,708.96 485.28,708.93 483.31,708.89 C493.35,708.95 506.51,708.62 514.00,707.93 C532.46,706.25 533.24,706.16 538.89,705.05 C547.35,703.40 548.05,703.90 541.00,706.55 C519.43,714.66 496.89,719.64 464.50,723.45 C452.88,724.82 419.46,725.38 410.50,724.36 C397.75,722.90 388.19,721.52 380.50,720.00 C362.88,716.53 351.46,713.79 348.85,712.40 C348.37,712.15 347.85,711.91 347.34,711.71 C349.32,712.11 351.73,712.25 354.00,712.00 C356.91,711.68 360.44,712.15 364.00,713.34 C368.77,714.93 370.50,715.03 377.00,714.10 C382.40,713.32 387.02,713.33 393.50,714.13 C398.45,714.74 405.20,715.53 408.50,715.88 C419.55,717.08 447.32,717.13 465.50,715.99 ZM 344.92 711.01 C344.84,711.00 344.76,711.00 344.69,711.00 C342.84,711.00 321.62,702.92 313.50,699.12 C310.20,697.57 304.58,695.03 301.00,693.46 C299.22,692.68 297.12,691.65 295.18,690.62 C300.32,693.20 305.62,695.31 308.42,695.59 C310.57,695.81 313.08,696.67 314.00,697.50 C314.91,698.32 316.08,699.00 316.59,699.00 C317.77,699.00 325.33,703.00 326.00,703.98 C326.80,705.15 334.32,707.42 336.36,707.12 C339.24,706.68 343.00,707.90 343.00,709.27 C343.00,709.93 343.74,710.53 344.92,711.01 ZM 700.18 414.75 C699.80,417.43 696.96,419.21 695.01,418.01 C693.84,417.28 693.84,416.90 695.02,415.47 C695.79,414.55 697.45,413.40 698.71,412.92 C700.26,412.33 701.00,411.24 701.00,409.52 C701.00,406.94 702.42,406.35 704.90,407.91 C706.86,409.16 705.57,411.78 702.81,412.17 C701.30,412.39 700.39,413.28 700.18,414.75 ZM 670.53 441.95 C670.17,442.53 668.80,443.00 667.47,443.00 C664.68,443.00 664.96,441.13 668.04,439.21 C669.69,438.17 670.14,438.21 670.61,439.43 C670.92,440.24 670.89,441.38 670.53,441.95 ZM 731.81 388.74 C731.47,390.51 728.92,391.58 727.77,390.44 C726.60,389.27 728.19,387.00 730.18,387.00 C731.51,387.00 732.04,387.56 731.81,388.74 ZM 285.99 685.32 C284.35,684.49 282.68,683.75 281.40,683.31 C278.15,682.21 274.64,679.92 272.84,678.09 C274.19,679.06 276.34,680.03 278.36,680.39 C279.93,680.68 281.73,681.52 282.36,682.28 C283.07,683.14 284.36,684.19 285.99,685.32 ZM 687.80 425.80 C686.03,427.57 684.14,427.26 684.43,425.25 C684.57,424.29 685.65,423.36 686.84,423.18 C689.23,422.83 689.64,423.96 687.80,425.80 ZM 716.45 400.27 C716.18,400.97 715.07,402.10 713.98,402.78 C712.39,403.78 712.00,403.76 712.00,402.71 C712.00,401.04 714.02,399.00 715.67,399.00 C716.37,399.00 716.72,399.57 716.45,400.27 ZM 496.50 607.36 C495.40,608.23 493.60,608.94 492.50,608.94 C490.89,608.94 490.79,608.77 492.00,608.09 C492.83,607.62 494.62,606.92 496.00,606.52 C498.43,605.81 498.44,605.84 496.50,607.36 ZM 680.86 430.12 C681.43,431.78 679.36,433.39 678.48,431.98 C678.08,431.32 678.36,430.39 679.12,429.92 C679.95,429.41 680.64,429.49 680.86,430.12 ZM 490.89 794.08 C501.28,794.68 515.07,794.72 527.94,794.21 C514.49,794.79 500.08,794.80 490.89,794.08 ZM 271.61 676.06 C271.64,675.83 271.78,675.65 272.07,675.55 C272.61,675.35 277.95,673.79 285.30,671.68 C277.47,674.00 271.96,675.74 271.64,676.03 C271.63,676.04 271.62,676.05 271.61,676.06 ZM 770.10 394.96 C769.66,394.82 769.33,394.29 769.33,393.67 C769.33,393.52 769.23,393.19 769.05,392.72 C769.40,393.46 769.75,394.21 770.10,394.96 Z" fill="rgb(3,113,129)"/>
<path d="M 339.74 606.79 C334.37,611.31 329.42,615.00 328.74,614.99 C326.44,614.98 310.27,602.01 302.86,594.22 C293.87,584.78 288.46,578.00 289.92,578.00 C290.51,578.00 291.00,578.45 291.00,578.99 C291.00,579.53 291.86,579.24 292.91,578.34 C294.34,577.12 294.69,575.87 294.30,573.44 L 293.77 570.18 L 299.29 570.39 C304.45,570.59 308.00,572.10 308.00,574.11 C308.00,574.58 309.77,579.07 311.93,584.07 C316.29,594.19 318.85,597.84 320.16,595.77 C321.01,594.43 320.75,592.19 318.36,580.01 C312.37,549.56 311.43,508.65 316.08,480.50 C325.58,422.93 349.76,375.61 389.25,337.32 C405.41,321.65 423.35,308.25 440.23,299.23 C444.49,296.96 447.86,295.59 447.73,296.18 C447.60,296.77 448.85,297.42 450.50,297.61 C457.40,298.44 464.78,300.33 469.00,302.34 C473.30,304.40 474.63,304.49 498.37,304.20 C522.66,303.90 529.00,304.28 529.00,306.01 C529.00,306.48 529.52,308.14 530.15,309.68 C530.79,311.23 531.43,313.13 531.59,313.90 C531.74,314.67 532.42,315.64 533.10,316.06 C533.83,316.51 532.53,317.03 529.92,317.33 C527.49,317.60 519.20,318.55 511.50,319.44 C439.63,327.74 373.48,371.56 334.80,436.50 C328.25,447.49 325.00,453.44 325.00,454.43 C325.00,455.07 326.59,454.79 351.00,449.94 C404.37,439.34 564.00,414.81 564.00,417.22 C564.00,417.76 547.58,432.06 539.00,439.00 C535.94,441.48 526.03,449.84 516.97,457.59 C507.91,465.34 494.20,476.98 486.50,483.45 C478.80,489.93 467.38,499.56 461.12,504.86 C454.86,510.16 446.72,516.97 443.02,520.00 C439.33,523.03 432.07,529.08 426.90,533.45 C421.73,537.82 410.52,547.25 402.00,554.41 C393.48,561.57 378.17,574.43 368.00,583.00 C357.83,591.57 345.11,602.27 339.74,606.79 ZM 757.15 362.02 C754.47,364.42 752.17,367.27 752.56,368.30 C753.27,370.14 750.98,374.80 748.10,377.41 C746.95,378.45 746.00,379.90 746.00,380.63 C746.00,381.35 744.75,382.60 743.22,383.39 C739.25,385.44 735.12,390.74 735.71,393.02 C736.09,394.46 735.53,395.07 733.35,395.59 C730.19,396.34 727.03,398.72 726.95,400.40 C726.92,401.01 724.69,402.95 721.99,404.73 C717.67,407.57 716.92,407.78 715.62,406.48 C713.71,404.57 711.54,404.60 709.57,406.57 C707.93,408.22 707.46,410.08 708.75,409.88 C711.49,409.45 712.07,410.24 711.84,414.11 C711.66,417.11 710.98,418.62 709.33,419.70 L 707.06 421.19 L 709.68 426.34 C710.41,427.78 711.13,429.32 711.83,430.96 C712.11,431.65 712.40,432.41 712.71,433.22 C710.76,428.29 709.06,424.99 708.22,425.09 C707.83,425.14 704.35,428.64 700.50,432.87 C690.78,443.54 646.93,490.75 626.71,512.33 C617.47,522.18 610.19,530.53 610.54,530.87 C610.88,531.22 622.94,531.73 637.33,532.01 C651.72,532.29 661.92,532.81 660.00,533.16 C658.08,533.51 644.35,535.22 629.50,536.96 C588.27,541.80 525.37,552.43 493.99,559.88 C487.35,561.46 482.05,562.39 482.21,561.96 C482.53,561.10 511.87,537.39 535.00,519.29 C542.97,513.06 556.45,502.45 564.93,495.73 C573.42,489.00 583.32,481.24 586.93,478.48 C590.55,475.72 598.90,469.19 605.50,463.97 C622.46,450.55 623.43,449.79 633.86,441.73 C647.55,431.15 648.66,430.35 647.26,432.12 C646.58,432.98 646.35,434.05 646.76,434.50 C647.17,434.95 646.89,434.97 646.15,434.54 C645.31,434.05 645.50,434.83 646.65,436.59 C647.71,438.22 647.94,439.08 647.18,438.61 C646.08,437.93 646.08,438.19 647.18,440.15 C647.90,441.44 648.87,442.77 649.33,443.11 C650.39,443.88 658.19,441.27 659.50,439.70 C661.04,437.85 670.83,429.85 677.50,424.97 C687.52,417.65 722.64,388.61 736.00,376.59 C742.14,371.07 747.73,367.01 751.16,365.58 C752.67,364.95 755.14,363.47 757.15,362.02 ZM 236.11 509.19 C236.66,510.23 236.62,511.12 236.00,511.50 C235.45,511.84 235.00,511.26 235.00,510.21 C235.00,509.16 233.58,507.22 231.84,505.90 C230.10,504.58 228.12,502.95 227.44,502.27 C225.34,500.22 223.93,488.33 223.77,471.50 C223.64,456.65 223.83,454.83 226.42,446.13 C230.38,432.85 241.64,405.08 243.09,405.02 C243.42,405.01 242.41,410.06 240.84,416.25 C235.33,438.04 234.65,443.76 234.57,469.50 C234.49,497.28 234.86,506.83 236.11,509.19 ZM 762.56 365.76 L 767.02 360.93 C772.99,354.46 775.46,351.14 774.28,351.19 C773.30,351.23 771.75,350.95 770.83,350.56 C769.69,350.07 768.01,350.93 766.74,352.27 C767.13,351.71 767.55,351.16 768.00,350.65 C771.00,347.23 787.80,333.89 786.55,335.92 C786.18,336.51 786.36,337.00 786.94,337.00 C789.55,337.00 788.22,338.61 762.56,365.76 ZM 700.18 414.75 C700.39,413.28 701.30,412.39 702.81,412.17 C705.57,411.78 706.86,409.16 704.90,407.91 C702.42,406.35 701.00,406.94 701.00,409.52 C701.00,411.24 700.26,412.33 698.71,412.92 C697.45,413.40 695.79,414.55 695.02,415.47 C693.84,416.90 693.84,417.28 695.01,418.01 C696.96,419.21 699.80,417.43 700.18,414.75 ZM 670.53 441.95 C670.89,441.38 670.92,440.24 670.61,439.43 C670.14,438.21 669.69,438.17 668.04,439.21 C664.96,441.13 664.68,443.00 667.47,443.00 C668.80,443.00 670.17,442.53 670.53,441.95 ZM 731.81 388.74 C732.04,387.56 731.51,387.00 730.18,387.00 C728.19,387.00 726.60,389.27 727.77,390.44 C728.92,391.58 731.47,390.51 731.81,388.74 ZM 687.80 425.80 C689.64,423.96 689.23,422.83 686.84,423.18 C685.65,423.36 684.57,424.29 684.43,425.25 C684.14,427.26 686.03,427.57 687.80,425.80 ZM 716.45 400.27 C716.72,399.57 716.37,399.00 715.67,399.00 C714.02,399.00 712.00,401.04 712.00,402.71 C712.00,403.76 712.39,403.78 713.98,402.78 C715.07,402.10 716.18,400.97 716.45,400.27 ZM 680.86 430.12 C680.64,429.49 679.95,429.41 679.12,429.92 C678.36,430.39 678.08,431.32 678.48,431.98 C679.36,433.39 681.43,431.78 680.86,430.12 ZM 723.43 473.96 C725.51,486.99 726.32,499.41 725.20,507.78 C726.15,500.67 725.57,489.48 723.43,473.96 ZM 763.65 358.00 C763.38,358.16 763.08,358.28 762.75,358.36 C762.55,358.41 762.34,358.49 762.12,358.58 C762.80,358.21 763.34,358.00 763.64,358.00 Z" fill="rgb(9,112,54)"/>
<path d="M 722.51 531.48 C722.29,533.30 722.22,534.55 722.35,534.68 C724.11,536.44 736.98,485.78 737.02,476.94 C737.04,471.96 738.17,470.66 741.81,471.46 C743.49,471.83 745.28,472.66 745.79,473.31 C746.31,473.97 747.01,478.95 747.35,484.39 C747.84,492.24 748.33,494.55 749.73,495.54 C750.70,496.23 752.62,497.79 754.00,499.00 C758.56,503.03 765.52,504.41 766.64,501.50 C766.95,500.67 767.80,500.00 768.53,500.00 C771.07,500.00 774.07,493.17 775.56,483.97 C776.37,478.92 777.47,473.99 777.99,473.01 C778.96,471.21 783.76,469.42 784.81,470.48 C785.13,470.79 785.92,474.23 786.58,478.11 C788.50,489.40 786.39,509.34 780.12,539.00 C777.35,552.14 773.96,561.71 765.91,579.20 C756.32,600.01 745.20,618.69 732.29,635.55 C740.18,625.12 750.82,608.83 752.14,604.94 C752.78,603.05 754.20,600.22 755.29,598.65 C756.92,596.32 757.03,595.64 755.92,594.95 C755.10,594.44 754.27,594.57 753.84,595.26 C753.32,596.10 752.62,595.98 751.31,594.82 C750.32,593.94 748.14,592.93 746.47,592.58 C743.66,591.99 743.12,592.37 739.22,597.72 C736.90,600.90 733.32,605.63 731.25,608.22 C729.19,610.82 724.58,616.72 721.00,621.32 C717.42,625.93 712.66,631.12 710.40,632.85 C705.64,636.51 703.20,637.12 707.25,633.63 C710.68,630.68 710.76,629.00 707.47,629.00 C706.08,629.00 704.68,628.33 704.36,627.50 C704.05,626.67 703.16,626.00 702.39,626.00 C700.60,626.00 700.98,624.25 703.59,620.50 C706.46,616.39 707.29,612.44 705.80,610.05 C704.78,608.41 704.96,607.19 706.91,602.79 C708.19,599.88 709.46,596.28 709.73,594.79 C710.59,590.02 705.48,587.40 701.73,590.68 C700.09,592.12 700.30,591.34 702.76,587.00 C710.56,573.17 719.00,548.71 722.51,531.48 ZM 496.50 607.36 C497.44,606.63 497.92,606.24 497.89,606.12 C499.77,605.47 500.94,605.03 501.28,604.86 C502.26,604.36 508.78,601.98 515.78,599.58 C531.96,594.02 539.18,591.42 562.00,582.95 C597.07,569.93 635.51,555.02 654.00,547.25 C662.53,543.66 671.75,539.85 674.50,538.78 C677.25,537.70 680.07,536.35 680.77,535.77 C681.47,535.19 682.28,534.95 682.56,535.23 C683.16,535.82 674.38,543.93 668.50,548.23 C666.30,549.83 664.14,551.79 663.70,552.57 C663.26,553.36 662.38,554.00 661.73,554.00 C661.09,554.00 658.53,555.97 656.03,558.37 C654.78,559.58 651.28,562.57 646.68,566.38 C646.66,566.29 646.62,566.19 646.55,566.09 C646.24,565.58 646.55,564.94 647.24,564.66 C647.93,564.39 648.02,564.12 647.44,564.08 C646.86,564.04 644.92,565.21 643.13,566.70 C641.34,568.18 638.93,569.54 637.78,569.72 C635.49,570.07 632.88,572.99 633.69,574.31 C633.97,574.76 633.26,575.38 632.11,575.68 C630.96,575.98 630.30,576.67 630.63,577.21 C630.98,577.77 630.36,577.73 629.19,577.10 C627.47,576.18 626.81,576.42 625.07,578.64 C623.93,580.09 623.00,581.67 623.00,582.17 C623.00,582.67 622.13,582.60 621.07,582.04 C618.57,580.70 618.43,580.71 616.60,582.54 C615.21,583.93 614.76,583.93 612.07,582.54 C609.18,581.04 608.80,581.13 601.13,584.99 C596.76,587.20 592.81,589.00 592.34,589.00 C591.88,589.00 575.38,597.08 555.69,606.94 L 555.44 607.07 C518.61,625.52 513.73,627.96 509.11,627.53 C508.39,627.47 507.68,627.33 506.86,627.18 C504.31,626.69 501.54,626.68 500.71,627.14 C499.81,627.65 497.86,627.43 495.85,626.62 C494.01,625.86 490.36,624.94 487.75,624.56 C484.68,624.12 482.66,623.23 482.03,622.05 C481.49,621.05 479.92,619.94 478.53,619.60 C474.06,618.48 475.47,616.31 483.00,612.71 C491.02,608.87 488.23,609.39 471.43,614.88 C465.35,616.87 455.89,619.89 445.46,623.20 C463.79,617.36 481.47,611.64 491.89,608.16 C490.80,608.78 490.95,608.94 492.50,608.94 C493.60,608.94 495.40,608.23 496.50,607.36 ZM 421.40 750.47 C442.38,753.75 462.63,755.23 482.83,754.83 C463.45,755.22 444.03,753.90 424.00,750.92 C416.58,749.81 406.74,747.96 402.15,746.81 C395.12,745.05 393.65,744.94 392.91,746.11 C392.43,746.87 392.02,747.14 392.02,746.71 C392.01,746.28 391.37,746.50 390.61,747.21 C389.85,747.92 389.37,749.29 389.55,750.25 C389.74,751.21 389.46,752.00 388.94,752.00 C388.42,752.00 388.00,752.57 388.00,753.28 C388.00,753.98 386.56,755.82 384.80,757.36 C381.54,760.22 377.81,760.58 372.50,758.56 C365.87,756.04 381.45,764.22 392.37,769.01 C393.29,769.41 394.21,769.80 395.14,770.20 C386.98,766.81 379.20,763.17 372.00,759.32 C357.01,751.30 333.89,736.74 333.17,734.86 C332.98,734.39 332.40,734.00 331.86,734.00 C330.90,734.00 312.94,720.15 309.94,717.09 C309.08,716.22 305.15,712.62 301.20,709.10 C297.25,705.58 291.24,699.56 287.83,695.73 C280.58,687.58 282.21,688.08 296.50,698.42 C332.10,724.16 379.47,743.90 421.40,750.47 ZM 608.20 597.42 C629.18,580.53 632.72,577.55 633.61,576.42 C634.22,575.64 635.18,575.00 635.74,575.00 C635.93,575.00 636.34,574.78 636.89,574.41 C634.96,575.97 632.98,577.56 631.00,579.14 C624.99,583.95 616.62,590.66 608.20,597.42 ZM 639.57 572.23 C640.00,571.84 640.44,571.43 640.88,571.00 C642.98,568.97 645.13,567.28 645.90,567.03 C643.94,568.65 641.80,570.40 639.57,572.23 ZM 439.17 784.91 C452.05,788.25 465.13,790.89 477.58,792.59 L 477.68 792.62 C465.10,790.91 452.07,788.28 439.17,784.91 ZM 729.40 639.26 C725.09,644.69 720.58,649.93 715.88,654.98 C720.40,650.09 724.86,644.90 729.40,639.26 ZM 507.86 677.03 C508.46,676.56 509.07,676.08 509.69,675.60 L 509.71 675.58 C517.32,669.65 525.57,663.18 534.02,656.53 C524.89,663.72 515.98,670.70 507.86,677.03 Z" fill="rgb(10,154,170)"/>
<path d="M 522.75 318.15 C526.06,317.77 528.71,317.46 529.92,317.33 C532.53,317.03 533.83,316.51 533.10,316.06 C532.42,315.64 531.74,314.67 531.59,313.90 C531.43,313.13 530.79,311.23 530.15,309.68 C529.52,308.14 529.00,306.48 529.00,306.01 C529.00,304.28 522.66,303.90 498.37,304.20 C474.63,304.49 473.30,304.40 469.00,302.34 C464.78,300.33 457.40,298.44 450.50,297.61 C448.85,297.42 447.60,296.77 447.73,296.18 C447.86,295.59 444.49,296.96 440.23,299.23 C436.19,301.39 432.09,303.80 427.97,306.43 C431.11,304.37 434.20,302.48 437.20,300.77 C450.20,293.36 468.82,284.47 476.50,282.02 C480.35,280.80 484.85,279.34 486.50,278.78 C529.28,264.32 575.97,262.35 620.00,273.14 C648.63,280.15 666.71,287.53 695.00,303.73 C710.84,312.80 727.54,325.79 725.72,327.62 C725.36,327.98 716.16,329.76 705.28,331.57 C681.71,335.51 624.16,347.32 588.50,355.54 C559.27,362.28 511.85,374.43 489.00,381.03 C436.39,396.24 415.29,402.93 370.18,418.73 C348.64,426.28 341.35,427.93 355.70,422.01 C359.99,420.24 367.01,417.26 371.31,415.39 C382.33,410.59 411.00,399.27 420.50,395.97 C494.47,370.26 525.59,360.78 585.00,345.87 C605.08,340.83 621.86,336.39 622.30,336.00 C623.53,334.92 599.84,326.31 588.00,323.52 C568.36,318.90 558.47,317.71 539.50,317.68 C533.51,317.67 528.02,317.82 522.75,318.15 ZM 236.11 509.19 C235.02,507.13 234.60,499.59 234.56,479.24 C234.75,501.79 236.09,512.25 240.52,529.27 C245.29,547.65 253.59,567.59 261.79,580.40 C272.00,596.33 290.32,615.08 303.25,622.83 C307.51,625.39 311.00,627.79 311.00,628.17 C311.00,629.61 295.15,634.88 287.68,635.91 C278.23,637.23 277.16,637.20 269.40,635.51 C261.83,633.87 254.00,629.96 247.80,624.74 C243.18,620.84 238.25,614.80 241.15,616.59 C243.12,617.80 239.58,612.63 235.71,608.65 C229.16,601.91 221.37,580.91 217.80,560.41 C215.85,549.24 215.56,544.07 215.59,522.00 C215.65,489.70 217.44,476.03 225.64,448.79 C223.79,455.39 223.65,458.29 223.77,471.50 C223.93,488.33 225.34,500.22 227.44,502.27 C228.12,502.95 230.10,504.58 231.84,505.90 C233.58,507.22 235.00,509.16 235.00,510.21 C235.00,511.26 235.45,511.84 236.00,511.50 C236.62,511.12 236.66,510.23 236.11,509.19 ZM 757.15 362.02 C755.14,363.47 752.67,364.95 751.16,365.58 C747.73,367.01 742.14,371.07 736.00,376.59 C722.64,388.61 687.52,417.65 677.50,424.97 C670.83,429.85 661.04,437.85 659.50,439.70 C658.19,441.27 650.39,443.88 649.33,443.11 C648.87,442.77 647.90,441.44 647.18,440.15 C646.08,438.19 646.08,437.93 647.18,438.61 C647.94,439.08 647.71,438.22 646.65,436.59 C645.50,434.83 645.31,434.05 646.15,434.54 C646.89,434.97 647.17,434.95 646.76,434.50 C646.35,434.05 646.58,432.98 647.26,432.12 C648.66,430.35 647.55,431.15 633.86,441.73 C631.35,443.67 629.39,445.18 627.62,446.55 C635.03,440.72 646.04,431.98 658.19,422.30 C684.07,401.67 730.65,365.89 746.31,354.62 C765.46,340.83 790.44,326.33 799.99,323.46 C802.53,322.70 797.25,328.92 777.42,349.96 C788.64,337.91 788.91,337.00 786.94,337.00 C786.36,337.00 786.18,336.51 786.55,335.92 C787.80,333.89 771.00,347.23 768.00,350.65 C767.55,351.16 767.13,351.71 766.74,352.27 C765.74,353.32 765.00,354.68 765.00,355.89 C765.00,356.74 764.48,357.52 763.65,358.00 L 763.64 358.00 C763.34,358.00 762.80,358.21 762.12,358.58 C760.71,359.16 758.86,360.50 757.15,362.02 ZM 387.29 339.24 C373.70,352.70 361.97,367.25 352.07,382.95 C357.17,374.78 362.76,366.90 368.83,359.30 C374.03,352.79 380.35,345.96 387.29,339.24 ZM 424.51 348.23 C388.19,369.00 356.83,399.51 334.80,436.50 C357.01,399.20 388.29,368.87 424.51,348.23 ZM 243.03 405.04 C241.68,405.66 234.32,423.30 229.44,437.02 C234.43,422.74 241.60,405.62 243.03,405.04 ZM 613.48 457.65 C611.27,459.40 608.66,461.47 605.50,463.97 C598.90,469.19 590.55,475.72 586.94,478.48 C590.55,475.72 598.90,469.19 605.50,463.96 C608.20,461.82 610.99,459.62 613.48,457.65 Z" fill="rgb(61,179,85)"/>
<path d="M 344.92 711.01 C345.60,711.29 346.42,711.53 347.34,711.71 C347.85,711.91 348.37,712.15 348.85,712.40 C351.46,713.79 362.88,716.53 380.50,720.00 C388.19,721.52 397.75,722.90 410.50,724.36 C419.46,725.38 452.88,724.82 464.50,723.45 C496.89,719.64 519.43,714.66 541.00,706.55 C545.10,705.01 546.58,704.19 545.43,704.11 C547.53,703.68 548.75,703.29 549.00,702.96 C549.28,702.59 551.97,701.71 555.00,701.01 C580.14,695.15 617.49,676.69 641.94,658.03 C670.16,636.50 695.62,604.05 709.61,572.63 C707.36,578.03 705.03,582.96 702.76,587.00 C700.30,591.34 700.09,592.12 701.73,590.68 C705.48,587.40 710.59,590.02 709.73,594.79 C709.46,596.28 708.19,599.88 706.91,602.79 C704.96,607.19 704.78,608.41 705.80,610.05 C707.29,612.44 706.46,616.39 703.59,620.50 C700.98,624.25 700.60,626.00 702.39,626.00 C703.16,626.00 704.05,626.67 704.36,627.50 C704.68,628.33 706.08,629.00 707.47,629.00 C710.76,629.00 710.68,630.68 707.25,633.63 C703.20,637.12 705.64,636.51 710.40,632.85 C712.66,631.12 717.42,625.93 721.00,621.32 C724.58,616.72 729.19,610.82 731.25,608.22 C733.32,605.63 736.90,600.90 739.22,597.72 C743.12,592.37 743.66,591.99 746.47,592.58 C748.14,592.93 750.32,593.94 751.31,594.82 C752.62,595.98 753.32,596.10 753.84,595.26 C754.27,594.57 755.10,594.44 755.92,594.95 C757.03,595.64 756.92,596.32 755.29,598.65 C754.20,600.22 752.78,603.05 752.14,604.94 C750.82,608.83 740.18,625.12 732.29,635.55 C731.34,636.80 730.37,638.03 729.40,639.26 L 729.40 639.26 C724.86,644.90 720.40,650.09 715.88,654.98 L 715.88 654.98 C705.56,666.07 694.28,676.27 681.93,685.72 C666.99,697.15 663.01,700.03 659.13,702.19 C653.27,705.46 643.71,711.17 640.88,713.09 C639.45,714.06 636.52,715.59 634.38,716.48 C632.25,717.37 629.38,718.85 628.00,719.77 C623.71,722.63 599.95,732.70 590.00,735.87 C552.25,747.91 517.61,754.13 482.83,754.83 L 482.80 754.83 C462.61,755.22 442.37,753.75 421.40,750.47 C379.47,743.90 332.10,724.16 296.50,698.42 C283.07,688.71 280.83,687.67 286.61,694.34 C281.05,688.63 276.14,683.43 274.28,681.21 C272.63,679.23 271.57,677.45 271.47,676.56 C271.56,677.00 272.07,677.55 272.84,678.09 C274.64,679.92 278.15,682.21 281.40,683.31 C282.68,683.75 284.35,684.49 285.99,685.32 C288.49,687.03 291.80,688.93 295.18,690.62 L 295.18 690.62 C297.12,691.65 299.22,692.68 301.00,693.46 C304.58,695.03 310.20,697.57 313.50,699.12 C321.62,702.92 342.84,711.00 344.69,711.00 C344.76,711.00 344.84,711.00 344.92,711.01 ZM 722.51 531.48 C721.55,536.16 720.24,541.38 718.66,546.78 C720.42,540.35 721.91,533.96 722.90,528.63 C722.74,529.66 722.61,530.63 722.51,531.48 ZM 536.31 705.54 C532.46,706.23 529.31,706.53 514.00,707.93 C522.98,707.11 530.54,706.30 536.31,705.54 ZM 302.18 709.98 C305.78,713.20 309.15,716.29 309.94,717.09 L 309.97 717.12 C308.67,716.01 307.49,714.98 306.50,714.08 C305.38,713.06 303.90,711.65 302.18,709.98 ZM 306.29 665.66 C317.13,662.51 330.93,658.43 342.95,654.81 C331.75,658.18 319.06,661.95 308.72,664.96 ZM 323.88 728.39 C327.97,731.50 331.45,734.00 331.86,734.00 C331.38,734.00 328.08,731.63 323.88,728.39 ZM 271.49 676.24 C271.52,676.18 271.55,676.12 271.59,676.08 C271.60,676.08 271.60,676.08 271.60,676.07 C271.55,676.13 271.52,676.18 271.49,676.24 Z" fill="rgb(42,171,195)"/>
<path d="M 347.45 390.60 C331.99,417.29 321.57,447.18 316.08,480.50 C311.43,508.65 312.37,549.56 318.36,580.01 C320.75,592.19 321.01,594.43 320.16,595.77 C318.85,597.84 316.29,594.19 311.93,584.07 C309.77,579.07 308.00,574.58 308.00,574.11 C308.00,572.10 304.45,570.59 299.29,570.39 L 293.77 570.18 L 294.30 573.44 C294.69,575.87 294.34,577.12 292.91,578.34 C291.86,579.24 291.00,579.53 291.00,578.99 C291.00,578.45 290.51,578.00 289.92,578.00 C289.56,578.00 289.61,578.40 290.02,579.13 C286.83,574.86 283.89,570.48 281.30,566.13 C256.58,524.60 250.69,470.41 265.03,416.49 C268.43,403.73 274.73,387.00 276.14,387.00 C276.68,387.00 276.85,386.56 276.52,386.03 C275.84,384.93 279.28,384.00 282.92,384.30 C284.98,384.47 286.56,382.69 293.42,372.47 C303.43,357.58 307.64,352.33 310.09,351.69 C311.14,351.41 312.00,351.59 312.00,352.07 C312.00,352.56 313.24,353.27 314.75,353.64 C317.95,354.43 323.95,358.04 325.82,360.29 C326.53,361.14 329.35,362.42 332.09,363.12 C334.83,363.82 336.85,364.87 336.60,365.45 C336.34,366.03 334.80,369.88 333.16,374.00 C331.53,378.12 329.03,383.56 327.61,386.08 C326.19,388.59 324.13,394.22 323.03,398.58 C320.75,407.61 320.66,408.33 321.90,407.56 C322.39,407.26 323.07,407.74 323.41,408.63 C323.90,409.90 324.99,410.15 328.45,409.76 C331.04,409.47 333.33,409.72 333.99,410.38 C334.83,411.21 334.96,411.08 334.50,409.88 C333.81,408.07 336.64,404.66 338.08,405.55 C338.59,405.86 339.04,405.75 339.08,405.31 C339.13,404.86 339.26,403.21 339.37,401.64 C339.50,399.84 340.58,398.05 342.30,396.80 C343.71,395.77 345.96,393.06 347.45,390.60 ZM 297.80 588.77 C299.32,590.45 301.01,592.28 302.86,594.22 C307.41,599.00 315.24,605.72 321.15,610.21 C316.39,606.66 310.51,601.82 306.67,598.12 C303.65,595.21 300.67,592.07 297.80,588.77 ZM 364.07 365.44 C361.05,369.48 358.16,373.59 355.40,377.77 C355.50,377.61 355.60,377.45 355.71,377.30 C358.24,373.37 361.05,369.41 364.07,365.44 ZM 423.16 309.59 C427.85,306.38 432.55,303.42 437.20,300.77 C434.20,302.48 431.11,304.37 427.97,306.43 C426.37,307.45 424.76,308.51 423.16,309.59 ZM 328.40 614.93 C328.53,614.97 328.65,614.99 328.74,614.99 C328.97,614.99 329.70,614.57 330.77,613.83 C329.70,614.57 328.97,615.00 328.73,615.00 C328.65,615.00 328.53,614.98 328.40,614.93 Z" fill="rgb(89,172,31)"/>
<path d="M 387.29 339.24 C380.35,345.96 374.03,352.79 368.83,359.30 C367.21,361.32 365.63,363.37 364.07,365.44 L 364.07 365.44 C361.05,369.41 358.24,373.37 355.71,377.30 C355.60,377.45 355.50,377.61 355.40,377.77 L 355.40 377.77 C354.27,379.49 353.16,381.21 352.07,382.95 L 352.07 382.95 C350.48,385.47 348.94,388.02 347.45,390.60 C345.96,393.06 343.71,395.77 342.30,396.80 C340.58,398.05 339.50,399.84 339.37,401.64 C339.26,403.21 339.13,404.86 339.08,405.31 C339.04,405.75 338.59,405.86 338.08,405.55 C336.64,404.66 333.81,408.07 334.50,409.88 C334.96,411.08 334.83,411.21 333.99,410.38 C333.33,409.72 331.04,409.47 328.45,409.76 C324.99,410.15 323.90,409.90 323.41,408.63 C323.07,407.74 322.39,407.26 321.90,407.56 C320.66,408.33 320.75,407.61 323.03,398.58 C324.13,394.22 326.19,388.59 327.61,386.08 C329.03,383.56 331.53,378.12 333.16,374.00 C334.80,369.88 336.34,366.03 336.60,365.45 C336.85,364.87 334.83,363.82 332.09,363.12 C329.35,362.42 326.53,361.14 325.82,360.29 C323.95,358.04 317.95,354.43 314.75,353.64 C313.24,353.27 312.00,352.56 312.00,352.07 C312.00,351.59 311.14,351.41 310.09,351.69 C307.64,352.33 303.43,357.58 293.42,372.47 C286.56,382.69 284.98,384.47 282.92,384.30 C279.28,384.00 275.84,384.93 276.52,386.03 C276.85,386.56 276.68,387.00 276.14,387.00 C274.73,387.00 268.45,403.66 265.05,416.42 C266.66,410.37 269.10,402.57 270.48,399.05 C271.87,395.51 273.00,391.98 273.00,391.19 C273.00,388.99 285.37,363.76 291.19,354.09 C306.64,328.41 331.53,300.20 351.48,285.77 C352.04,285.36 353.85,283.97 355.50,282.66 C373.25,268.66 404.45,252.13 429.00,243.72 C475.94,227.64 532.52,225.58 582.50,238.14 C625.41,248.92 663.13,268.49 697.06,297.58 C706.56,305.73 726.00,325.59 726.00,327.14 C726.00,328.19 724.73,328.46 705.85,331.48 C705.66,331.51 705.47,331.54 705.28,331.57 C716.16,329.76 725.36,327.98 725.72,327.62 C727.54,325.79 710.84,312.80 695.00,303.73 C666.71,287.53 648.63,280.15 620.00,273.14 C575.97,262.35 529.28,264.32 486.50,278.78 C484.85,279.34 480.35,280.80 476.50,282.02 C468.82,284.47 450.20,293.36 437.20,300.77 C432.55,303.42 427.85,306.38 423.16,309.59 C411.62,317.40 400.04,326.85 389.25,337.32 C388.59,337.95 387.94,338.60 387.29,339.24 ZM 229.07 597.96 C231.29,602.71 233.57,606.44 235.71,608.65 C239.58,612.63 243.12,617.80 241.15,616.59 C239.16,615.36 240.86,617.83 243.63,620.76 C238.98,616.01 234.97,610.35 231.85,603.98 C230.89,602.01 229.96,600.00 229.07,597.96 ZM 685.40 335.19 C657.83,340.48 615.20,349.38 588.50,355.54 C616.32,349.13 657.47,340.53 685.40,335.19 Z" fill="rgb(165,219,65)"/>
<path d="M 0.00 512.00 L 0.00 0.00 L 512.00 0.00 L 1024.00 0.00 L 1024.00 512.00 L 1024.00 1024.00 L 512.00 1024.00 L 0.00 1024.00 L 0.00 512.00 ZM 553.87 792.08 C587.46,786.99 611.79,779.47 641.50,764.99 C684.71,743.92 725.74,707.52 752.60,666.42 C761.32,653.08 773.00,631.17 773.00,628.17 C773.00,626.98 773.45,626.00 774.00,626.00 C774.55,626.00 775.00,625.52 775.00,624.94 C775.00,624.35 776.08,621.50 777.41,618.61 C783.75,604.74 791.46,575.85 794.64,554.00 C796.78,539.28 797.10,497.23 795.18,482.00 C790.99,448.81 780.56,414.98 765.29,385.08 L 757.92 370.65 L 761.76 366.58 C763.87,364.33 770.07,357.75 775.55,351.95 C796.92,329.31 802.60,322.68 799.99,323.46 C790.44,326.33 765.46,340.83 746.31,354.62 C730.65,365.89 684.07,401.67 658.19,422.30 C641.85,435.33 627.58,446.63 621.33,451.48 C619.23,453.12 612.10,458.74 605.50,463.96 C598.90,469.19 590.55,475.72 586.93,478.48 C583.32,481.24 573.42,489.00 564.93,495.73 C556.45,502.45 542.97,513.06 535.00,519.29 C511.87,537.39 482.53,561.10 482.21,561.96 C482.05,562.39 487.35,561.46 493.99,559.88 C525.37,552.43 588.27,541.80 629.50,536.96 C644.35,535.22 658.08,533.51 660.00,533.16 C661.92,532.81 651.72,532.29 637.33,532.01 C622.94,531.73 610.88,531.22 610.54,530.87 C610.19,530.53 617.47,522.18 626.71,512.33 C646.93,490.75 690.78,443.54 700.50,432.87 C704.35,428.64 707.83,425.14 708.22,425.09 C710.65,424.78 720.23,452.95 722.35,466.59 C725.35,486.00 726.30,499.59 725.20,507.78 C724.64,512.03 724.18,516.62 724.19,518.00 C724.25,524.62 720.36,542.31 715.63,557.00 C704.06,592.88 674.88,632.89 641.94,658.03 C617.49,676.69 580.14,695.15 555.00,701.01 C551.97,701.71 549.28,702.59 549.00,702.96 C548.11,704.15 534.91,706.02 514.00,707.93 C501.33,709.09 472.46,709.25 469.83,708.18 C468.56,707.66 471.19,705.20 480.69,698.00 C502.56,681.41 553.55,641.33 587.50,614.04 C600.15,603.87 619.72,588.17 631.00,579.14 C642.28,570.12 653.54,560.77 656.03,558.37 C658.53,555.97 661.09,554.00 661.73,554.00 C662.38,554.00 663.26,553.36 663.70,552.57 C664.14,551.79 666.30,549.83 668.50,548.23 C674.38,543.93 683.16,535.82 682.56,535.23 C682.28,534.95 681.47,535.19 680.77,535.77 C680.07,536.35 677.25,537.70 674.50,538.78 C671.75,539.85 662.53,543.66 654.00,547.25 C635.51,555.02 597.07,569.93 562.00,582.95 C539.18,591.42 531.96,594.02 515.78,599.58 C508.78,601.98 502.26,604.36 501.28,604.86 C498.23,606.42 426.16,629.56 394.00,639.30 C387.67,641.22 368.15,647.15 350.61,652.49 C333.07,657.83 308.32,665.13 295.61,668.72 C282.90,672.31 272.09,675.62 271.59,676.08 C271.07,676.56 272.21,678.73 274.28,681.21 C278.62,686.39 299.54,707.73 306.50,714.08 C313.67,720.61 330.71,734.00 331.86,734.00 C332.40,734.00 332.98,734.39 333.17,734.86 C333.89,736.74 357.01,751.30 372.00,759.32 C405.22,777.08 450.72,790.48 489.74,793.99 C505.36,795.39 538.54,794.40 553.87,792.08 ZM 287.68 635.91 C295.15,634.88 311.00,629.61 311.00,628.17 C311.00,627.79 307.51,625.39 303.25,622.83 C290.32,615.08 272.00,596.33 261.79,580.40 C253.59,567.59 245.29,547.65 240.52,529.27 C235.61,510.41 234.50,499.60 234.54,471.50 C234.59,443.56 235.13,438.84 240.84,416.25 C242.41,410.06 243.42,405.01 243.09,405.03 C241.57,405.09 231.44,429.94 226.80,445.00 C217.60,474.82 215.65,488.24 215.59,522.00 C215.56,544.07 215.85,549.24 217.80,560.41 C220.41,575.42 225.31,590.60 231.85,603.98 C239.88,620.40 253.85,632.13 269.41,635.52 C277.16,637.20 278.23,637.23 287.68,635.91 ZM 339.74 606.79 C345.11,602.27 357.83,591.57 368.00,583.00 C378.17,574.43 393.48,561.57 402.00,554.41 C410.52,547.25 421.73,537.82 426.90,533.45 C432.07,529.08 439.33,523.03 443.02,520.00 C446.72,516.97 454.86,510.16 461.12,504.86 C467.38,499.56 478.80,489.93 486.50,483.45 C494.20,476.98 507.91,465.34 516.97,457.59 C526.03,449.84 535.94,441.48 539.00,439.00 C547.58,432.06 564.00,417.76 564.00,417.22 C564.00,414.81 404.37,439.34 351.00,449.94 C326.59,454.79 325.00,455.07 325.00,454.43 C325.00,453.44 328.25,447.49 334.80,436.50 C368.44,380.02 423.81,338.66 485.41,323.99 C504.98,319.34 519.42,317.65 539.50,317.68 C558.47,317.71 568.36,318.90 588.00,323.52 C599.84,326.31 623.53,334.92 622.30,336.00 C621.86,336.39 605.08,340.83 585.00,345.87 C525.59,360.78 494.47,370.26 420.50,395.97 C411.00,399.27 382.33,410.59 371.31,415.39 C367.01,417.26 359.99,420.24 355.70,422.01 C341.35,427.93 348.64,426.28 370.18,418.73 C415.29,402.93 436.39,396.24 489.00,381.03 C511.85,374.43 559.27,362.28 588.50,355.54 C623.52,347.47 685.94,334.67 705.85,331.48 C724.73,328.46 726.00,328.19 726.00,327.14 C726.00,325.59 706.56,305.73 697.06,297.58 C663.13,268.49 625.41,248.92 582.50,238.14 C532.52,225.58 475.94,227.64 429.00,243.72 C404.45,252.13 373.25,268.66 355.50,282.66 C353.85,283.97 352.04,285.36 351.48,285.77 C331.53,300.20 306.64,328.41 291.19,354.09 C285.37,363.76 273.00,388.99 273.00,391.19 C273.00,391.98 271.87,395.51 270.48,399.05 C269.10,402.58 266.64,410.43 265.03,416.49 C250.69,470.41 256.58,524.60 281.30,566.13 C288.04,577.45 297.16,588.96 306.67,598.12 C313.53,604.74 326.95,615.00 328.73,615.00 C329.42,615.00 334.37,611.31 339.74,606.79 Z" fill="rgb(253,253,253)"/>
</g>
</svg>